<?xml version="1.0" encoding="UTF-8"?>
<svg version="1.1" viewBox="0 0 1600 1152" width="1280" height="1280" xmlns="http://www.w3.org/2000/svg">
<path transform="translate(0)" d="m0 0h1600v1152h-1600v-1152z" fill="#FCFDFF"/>
<path transform="translate(895 219)" d="m0 0c1.23-0.00261 2.45-0.00522 3.72-0.0079 1.37 0.00216 2.75 0.00442 4.12 0.00676 1.45-0.00115 2.9-0.00274 4.35-0.00473 4-0.00419 8-0.0021 12 9.86e-4 4.31 0.00225 8.62-0.00123 12.9-0.00398 8.45-0.00446 16.9-0.00348 25.4-5.87e-4 6.88 0.00226 13.8 0.00257 20.6 0.00148 0.979-1.53e-4 1.96-3.06e-4 2.97-4.64e-4 1.99-3.2e-4 3.98-6.44e-4 5.97-9.73e-4 18.7-0.00286 37.4 4.33e-4 56.1 0.0058 16 0.00445 32 0.00371 48-9.19e-4 18.6-0.00538 37.2-0.00744 55.8-0.00439 1.99 3.19e-4 3.98 6.33e-4 5.97 9.43e-4 0.979 1.54e-4 1.96 3.09e-4 2.97 4.68e-4 6.85 8.58e-4 13.7-5.82e-4 20.5-0.00295 8.39-0.00283 16.8-0.00199 25.2 0.00328 4.27 0.00259 8.53 0.00372 12.8 3.51e-4 15.6-0.0112 31.2 0.0457 46.8 0.563 1.13 0.0366 2.26 0.0733 3.42 0.111 12.6 0.476 25.2 1.76 37.7 3.46 1.71 0.231 1.71 0.231 3.46 0.467 23.8 3.37 49 9.51 69.5 22.5 1.57 0.969 1.57 0.969 3.16 1.96 30.5 19.6 49.2 47.2 61 81 0.22 0.632 0.44 1.26 0.666 1.92 3.65 10.6 6.16 20.9 7.21 32.1 0.133 1.09 0.133 1.09 0.268 2.19 1.14 10.2 0.974 20.4 0.982 30.7 0.00134 1.02 0.00268 2.04 0.00406 3.1-0.00479 16.9-0.872 33.3-3.25 50-0.133 0.976-0.267 1.95-0.404 2.96-1.01 7.37-2.16 14.7-3.51 22-1.42 7.78-2.63 15.6-3.83 23.4-0.129 0.836-0.258 1.67-0.391 2.53-3.28 21.3-6.08 42.7-8.86 64.1-8.3 63.7-8.3 63.7-13.2 91.3-2.62 14.9-4.83 29.9-7.01 44.9-0.168 1.15-0.337 2.31-0.51 3.5-1.92 13.2-3.73 26.4-5.34 39.6-0.704 5.78-1.5 11.5-2.45 17.3-0.412 2.79-0.752 5.57-1.05 8.38-6.11 54.8-29 123-72.5 159-1.94 1.7-3.67 3.5-5.44 5.38-17.1 17.2-38.8 28.4-60.6 38.4-0.939 0.439-1.88 0.878-2.84 1.33-33.3 15.5-70.8 17.2-107 18.7-1.02 0.0432-2.03 0.0864-3.08 0.131-21.4 0.896-42.8 1.26-64.2 1.42-3.19 0.0243-6.38 0.0516-9.57 0.0795-61.7 0.535-123 0.475-185 0.463-12.2-0.00235-24.3-0.00258-36.5-0.00149-0.878 7.64e-5 -1.76 1.53e-4 -2.66 2.31e-4 -3.57 3.12e-4 -7.13 6.3e-4 -10.7 9.6e-4 -33.1 0.00302-66.2 3.39e-4 -99.3-0.0051-29.2-0.00477-58.5-0.0043-87.7 4.61e-4 -33.1 0.00538-66.3 0.00747-99.4 0.00439-3.54-3.21e-4 -7.08-6.33e-4 -10.6-9.43e-4 -1.31-1.19e-4 -1.31-1.19e-4 -2.64-2.4e-4 -13-0.00113-26 1.72e-4 -39.1 0.00272-14.8 0.00288-29.6 0.0021-44.4-0.00328-7.52-0.00264-15-0.00381-22.6-3.51e-4 -26.5 0.0114-53.1-0.00268-79.6-0.586-0.917-0.02-1.83-0.0399-2.78-0.0605-67.5-1.52-67.5-1.52-94-8.58-3.86-1.02-7.73-1.76-11.7-2.42-1.79-0.492-1.79-0.492-3.79-2.49-1.47-0.38-2.95-0.703-4.44-1-9.19-2.39-17.3-7.37-25.6-12-0.703-0.396-1.41-0.791-2.13-1.2-8.67-4.93-17.4-10.2-24.9-16.8v-2c-0.83-0.346-0.83-0.346-1.68-0.699-20.2-11.3-34.4-43.2-40.6-64.5-1.06-3.92-1.9-7.86-2.72-11.8-0.412-1.81-0.412-1.81-0.832-3.65-11.2-54.4-0.752-113 8.18-167 0.941-5.7 1.79-11.4 2.66-17.1 1.04-6.84 2.13-13.7 3.3-20.5 3.21-18.8 5.83-37.7 8.19-56.7 1.48-11.9 3-23.8 4.52-35.7 0.196-1.55 0.196-1.55 0.397-3.13 3.39-26.7 9.64-50.9 19.8-75.8 1.05-2.66 1.92-5.36 2.82-8.07 7.13-18.9 16.4-36.4 28.8-52.4 1.86-2.43 3.6-4.94 5.37-7.44 3.94-5.41 8.28-10.3 12.9-15.2 0.759-0.812 1.52-1.62 2.3-2.46 6.15-6.38 12.8-11.8 19.9-17.2 1.78-1.35 3.53-2.72 5.28-4.11 21.6-16.7 47.2-27.5 73.1-35.5 1.6-0.498 3.19-1.01 4.77-1.54 6.87-2.21 13.7-3.31 20.9-4.27 1.23-0.17 2.46-0.34 3.73-0.515 30.8-4.15 61.5-4.61 92.5-4.61 3.51 8.08e-5 7.02-0.00681 10.5-0.0205 18.6-0.0712 37.1 0.0738 55.7 1.11 0.732 0.04 1.46 0.08 2.22 0.121 27.3 1.53 52.8 6.66 77.8 18 2.23 1.01 4.46 1.98 6.7 2.96 33.3 14.8 57.1 41.8 70.6 75.4 5.26 13.8 9.73 28 12 42.6 0.165 0.814 0.33 1.63 0.5 2.47 2.12 11.4 1.9 22.9 1.88 34.5-2.11e-4 1.11-4.23e-4 2.23-6.41e-4 3.38-0.0333 17.6-1.17 34.3-4.37 51.6-0.786 4.56-1.55 9.12-2.31 13.7-0.205 1.21-0.411 2.41-0.622 3.65-5.3 31.5-9.27 63.3-13 95-0.115 0.967-0.23 1.93-0.349 2.93-0.208 1.75-0.414 3.5-0.616 5.25-1.13 9.53-2.65 19-4.08 28.5-129 0.33-259 0.66-392 1-1.62 4.04-2.33 6.46-2.75 10.6-0.171 1.63-0.171 1.63-0.344 3.3-0.114 1.16-0.229 2.32-0.347 3.52-0.783 7.63-1.62 15.2-2.84 22.8-1.54 9.79-2.03 19.5-2.09 29.4-0.0138 1.24-0.0276 2.49-0.0417 3.77 0.0848 16.9 5.18 32.8 16.4 45.6 18.9 18.7 45.8 21.2 71.1 21.1 1.39 0.00105 2.79 0.00253 4.18 0.0044 3.82 0.00388 7.63 0.00157 11.5-0.00178 4.16-0.00254 8.32 7.26e-4 12.5 0.00324 7.28 0.00361 14.6 0.0035 21.9 9.53e-4 10.8-0.00378 21.7-0.00185 32.5 0.00121 19.3 0.00527 38.7 0.00481 58 0.00192 16.9-0.00252 33.9-0.00317 50.8-0.00198 1.12 7.64e-5 2.25 1.53e-4 3.4 2.31e-4 4.56 3.11e-4 9.12 6.3e-4 13.7 9.6e-4 42.8 0.00306 85.6 2.85e-4 128-0.0051 38-0.00474 76-0.00432 114 4.61e-4 42.7 0.00536 85.4 0.00748 128 0.00439 4.55-3.21e-4 9.11-6.34e-4 13.7-9.43e-4 1.68-1.19e-4 1.68-1.19e-4 3.4-2.4e-4 16.9-0.00114 33.8 1.91e-4 50.8 0.00272 19.2 0.00286 38.5 0.00214 57.7-0.00328 10.8-0.00293 21.5-0.00314 32.3 6.46e-4 7.2 0.00225 14.4 8.34e-4 21.6-0.0035 4.1-0.00237 8.19-0.00321 12.3 4.06e-4 19.7 0.0597 19.7 0.0597 39.3-0.553 1.07-0.0534 1.07-0.0534 2.15-0.108 7.4-0.451 14.6-1.89 21.8-3.47 1.13-0.227 2.26-0.454 3.43-0.688 12.2-2.56 22.8-6.47 32.6-14.3 0.821-0.646 1.64-1.29 2.49-1.96 17.9-15 30.7-39.8 34.5-62.5 0.17-0.999 0.34-2 0.515-3.03 1.87-11.3 3.23-22.6 4.57-33.9 1.43-12.1 2.86-24.2 5.29-36.2 0.693-3.63 1.19-7.24 1.65-10.9 0.631-4.98 1.42-9.88 2.38-14.8 1.73-9.05 3.17-18.1 4.56-27.3 0.195-1.27 0.195-1.27 0.393-2.56 2.28-14.9 4.3-29.8 6.16-44.8 2.64-21.2 5.39-42.4 8.24-63.6 0.254-1.89 0.507-3.77 0.758-5.66 1.31-9.81 2.76-19.5 4.64-29.3 13.4-56.3 13.4-56.3 3.3-111-0.513-1-0.513-1-1.04-2.02-5.16-9.73-11.7-19.4-21.4-25-0.87-0.509-1.74-1.02-2.64-1.54-6.9-3.73-13.7-5.86-21.3-7.7-3.05-0.762-3.05-0.762-5.05-1.76-27.1-4.07-55.7-2.16-83-2.17-3.44-7.18e-4 -6.89-0.00287-10.3-0.0055-12-0.00919-24.1-0.0133-36.1-0.0125-11.2 6.05e-4 -22.4-0.01-33.6-0.0257-9.65-0.0131-19.3-0.0184-29-0.0178-5.75 2.55e-4 -11.5-0.00257-17.2-0.0132-5.38-0.00967-10.8-0.00977-16.2-0.00248-1.97 0.00105-3.94-0.00132-5.92-0.00736-2.69-0.00772-5.39-0.00308-8.08 0.00463-1.17-0.00772-1.17-0.00772-2.36-0.0156-4.78 0.0302-8.72 0.752-13.3 2.26-1.37 8.32-2.5 16.7-3.59 25-0.144 1.11-0.288 2.21-0.437 3.36-0.601 4.63-1.2 9.26-1.79 13.9-1.8 14-3.8 27.9-6.18 41.8-1.75 10.2-3.3 20.5-4.88 30.7-0.172 1.12-0.343 2.24-0.52 3.39-5.52 36-10.3 72.1-14.9 108-5.6 44.3-5.6 44.3-9.14 63.5-1.22 6.69-2.36 13.4-3.51 20.1-0.127 0.737-0.254 1.47-0.385 2.23-2.18 12.7-4.21 25.3-6.12 38.1-0.192 1.26-0.383 2.52-0.58 3.81-0.166 1.11-0.332 2.21-0.503 3.36-0.477 2.61-0.477 2.61-1.48 4.61-15.3 0.0234-30.7 0.041-46 0.0518-7.12 0.00514-14.2 0.0121-21.4 0.0236-6.21 0.01-12.4 0.0164-18.6 0.0186-3.28 0.0013-6.57 0.00485-9.85 0.0116-3.68 0.0073-7.35 0.00826-11 0.0078-1.07 0.0036-2.15 0.00719-3.25 0.0109-18.8-0.0255-18.8-0.0255-20.9-2.12-0.407-6.49 0.759-12.7 1.81-19.1 0.166-1.05 0.331-2.1 0.502-3.19 0.856-5.29 1.85-10.5 3.11-15.7 1.65-7.08 2.81-14.2 3.88-21.4 0.206-1.36 0.412-2.73 0.619-4.09 0.546-3.62 1.08-7.23 1.62-10.9 0.335-2.26 0.671-4.52 1.01-6.78 3.07-20.6 5.81-41.3 8.03-62 0.0905-0.843 0.181-1.69 0.274-2.55 0.0895-0.834 0.179-1.67 0.271-2.53 3.13-28.8 7.17-57.6 12.1-86.1 3.5-20.2 6.49-40.5 9.3-60.8 0.0977-0.706 0.195-1.41 0.296-2.14 2.61-18.9 5.07-37.8 7.25-56.7 1.48-12.8 3.25-25.6 5.32-38.3 0.686-4.35 1.34-8.7 1.98-13.1 0.186-1.26 0.186-1.26 0.376-2.54 0.256-1.73 0.512-3.45 0.767-5.18 2.78-18.7 5.77-37.5 9.02-56.1 1.04-6.06 1.76-12 2.09-18.1 0.351-2.65 0.915-4.35 2.34-6.59 2.68-1.34 4.72-1.13 7.72-1.13z" fill="#000100"/>
<path transform="translate(439 470)" d="m0 0c3.73 0.00572 7.46 0.00229 11.2-0.00343 38.8-0.0508 38.8-0.0508 52.8 2.45 0.744 0.13 1.49 0.259 2.26 0.393 17.4 3.2 30.4 9.97 40.7 24.5 18.4 27.2 16.2 55.3 11.3 86.5-0.33 2.22-0.659 4.43-0.986 6.65-0.598 4.01-1.2 8.02-1.82 12-0.122 0.789-0.244 1.58-0.37 2.39-0.37 2.09-0.844 4.13-1.39 6.18-2.86 0.814-5.39 1.13-8.36 1.13-0.871 0.00322-1.74 0.00645-2.64 0.00977-0.952-0.00155-1.9-0.0031-2.89-0.00469-1.52 0.0034-1.52 0.0034-3.08 0.00687-3.41 0.00635-6.82 0.00551-10.2 0.00469-2.44 0.00299-4.88 0.00639-7.33 0.0102-5.95 0.00793-11.9 0.0111-17.9 0.0116-4.84 4.75e-4 -9.68 0.00253-14.5 0.0057-13.7 0.00881-27.4 0.0134-41.2 0.0127-0.74-4e-5 -1.48-7.99e-5 -2.24-1.21e-4 -0.741-4.09e-5 -1.48-8.18e-5 -2.24-1.24e-4 -12-4.06e-4 -24 0.00916-36 0.0233-12.3 0.0144-24.6 0.0213-37 0.0204-6.92-3.32e-4 -13.8 0.00241-20.8 0.0132-6.51 0.0101-13 0.00977-19.5 0.00248-2.39-0.00105-4.78 0.00132-7.17 0.00736-3.26 0.0077-6.52 0.00309-9.78-0.00463-0.946 0.00514-1.89 0.0103-2.87 0.0156-5.19-0.0272-9.49-0.569-14.4-2.26l0.387-3.42c0.426-3.82 0.827-7.64 1.22-11.5 4-38.7 9.37-75.8 40.6-103 4.97-3.89 10.3-7.05 15.8-10.2 1.3-0.82 1.3-0.82 2.62-1.66 6.74-3.92 13.7-5.57 21.3-7.16 0.961-0.207 1.92-0.414 2.91-0.628 20.1-3.86 41.2-2.72 61.6-2.69z" fill="#FCFDFF"/>
</svg>
